<?xml version="1.0" encoding="utf-8" standalone="no"?>
<!DOCTYPE svg PUBLIC "-//W3C//DTD SVG 1.1//EN"
  "http://www.w3.org/Graphics/SVG/1.1/DTD/svg11.dtd">
<!-- Created with matplotlib (https://matplotlib.org/) -->
<svg height="288pt" version="1.1" viewBox="0 0 432 288" width="432pt" xmlns="http://www.w3.org/2000/svg" xmlns:xlink="http://www.w3.org/1999/xlink">
 <metadata>
  <rdf:RDF xmlns:cc="http://creativecommons.org/ns#" xmlns:dc="http://purl.org/dc/elements/1.1/" xmlns:rdf="http://www.w3.org/1999/02/22-rdf-syntax-ns#">
   <cc:Work>
    <dc:type rdf:resource="http://purl.org/dc/dcmitype/StillImage"/>
    <dc:date>2025-10-10T07:07:38.082292</dc:date>
    <dc:format>image/svg+xml</dc:format>
    <dc:creator>
     <cc:Agent>
      <dc:title>Matplotlib v3.3.4, https://matplotlib.org/</dc:title>
     </cc:Agent>
    </dc:creator>
   </cc:Work>
  </rdf:RDF>
 </metadata>
 <defs>
  <style type="text/css">*{stroke-linecap:butt;stroke-linejoin:round;}</style>
 </defs>
 <g id="figure_1">
  <g id="patch_1">
   <path d="M 0 288 
L 432 288 
L 432 0 
L 0 0 
z
" style="fill:none;"/>
  </g>
  <g id="axes_1">
   <g id="patch_2">
    <path d="M 54 252 
L 388.8 252 
L 388.8 34.56 
L 54 34.56 
z
" style="fill:#ffffff;"/>
   </g>
   <g id="matplotlib.axis_1">
    <g id="xtick_1">
     <g id="line2d_1">
      <defs>
       <path d="M 0 0 
L 0 3.5 
" id="m40faf97dae" style="stroke:#000000;stroke-width:0.8;"/>
      </defs>
      <g>
       <use style="stroke:#000000;stroke-width:0.8;" x="62.877273" xlink:href="#m40faf97dae" y="252"/>
      </g>
     </g>
     <g id="text_1">
      <!-- 0 -->
      <g transform="translate(59.696023 266.598437)scale(0.1 -0.1)">
       <defs>
        <path d="M 31.78125 66.40625 
Q 24.171875 66.40625 20.328125 58.90625 
Q 16.5 51.421875 16.5 36.375 
Q 16.5 21.390625 20.328125 13.890625 
Q 24.171875 6.390625 31.78125 6.390625 
Q 39.453125 6.390625 43.28125 13.890625 
Q 47.125 21.390625 47.125 36.375 
Q 47.125 51.421875 43.28125 58.90625 
Q 39.453125 66.40625 31.78125 66.40625 
z
M 31.78125 74.21875 
Q 44.046875 74.21875 50.515625 64.515625 
Q 56.984375 54.828125 56.984375 36.375 
Q 56.984375 17.96875 50.515625 8.265625 
Q 44.046875 -1.421875 31.78125 -1.421875 
Q 19.53125 -1.421875 13.0625 8.265625 
Q 6.59375 17.96875 6.59375 36.375 
Q 6.59375 54.828125 13.0625 64.515625 
Q 19.53125 74.21875 31.78125 74.21875 
z
" id="DejaVuSans-48"/>
       </defs>
       <use xlink:href="#DejaVuSans-48"/>
      </g>
     </g>
    </g>
    <g id="xtick_2">
     <g id="line2d_2">
      <g>
       <use style="stroke:#000000;stroke-width:0.8;" x="126.286364" xlink:href="#m40faf97dae" y="252"/>
      </g>
     </g>
     <g id="text_2">
      <!-- 2 -->
      <g transform="translate(123.105114 266.598437)scale(0.1 -0.1)">
       <defs>
        <path d="M 19.1875 8.296875 
L 53.609375 8.296875 
L 53.609375 0 
L 7.328125 0 
L 7.328125 8.296875 
Q 12.9375 14.109375 22.625 23.890625 
Q 32.328125 33.6875 34.8125 36.53125 
Q 39.546875 41.84375 41.421875 45.53125 
Q 43.3125 49.21875 43.3125 52.78125 
Q 43.3125 58.59375 39.234375 62.25 
Q 35.15625 65.921875 28.609375 65.921875 
Q 23.96875 65.921875 18.8125 64.3125 
Q 13.671875 62.703125 7.8125 59.421875 
L 7.8125 69.390625 
Q 13.765625 71.78125 18.9375 73 
Q 24.125 74.21875 28.421875 74.21875 
Q 39.75 74.21875 46.484375 68.546875 
Q 53.21875 62.890625 53.21875 53.421875 
Q 53.21875 48.921875 51.53125 44.890625 
Q 49.859375 40.875 45.40625 35.40625 
Q 44.1875 33.984375 37.640625 27.21875 
Q 31.109375 20.453125 19.1875 8.296875 
z
" id="DejaVuSans-50"/>
       </defs>
       <use xlink:href="#DejaVuSans-50"/>
      </g>
     </g>
    </g>
    <g id="xtick_3">
     <g id="line2d_3">
      <g>
       <use style="stroke:#000000;stroke-width:0.8;" x="189.695455" xlink:href="#m40faf97dae" y="252"/>
      </g>
     </g>
     <g id="text_3">
      <!-- 4 -->
      <g transform="translate(186.514205 266.598437)scale(0.1 -0.1)">
       <defs>
        <path d="M 37.796875 64.3125 
L 12.890625 25.390625 
L 37.796875 25.390625 
z
M 35.203125 72.90625 
L 47.609375 72.90625 
L 47.609375 25.390625 
L 58.015625 25.390625 
L 58.015625 17.1875 
L 47.609375 17.1875 
L 47.609375 0 
L 37.796875 0 
L 37.796875 17.1875 
L 4.890625 17.1875 
L 4.890625 26.703125 
z
" id="DejaVuSans-52"/>
       </defs>
       <use xlink:href="#DejaVuSans-52"/>
      </g>
     </g>
    </g>
    <g id="xtick_4">
     <g id="line2d_4">
      <g>
       <use style="stroke:#000000;stroke-width:0.8;" x="253.104545" xlink:href="#m40faf97dae" y="252"/>
      </g>
     </g>
     <g id="text_4">
      <!-- 6 -->
      <g transform="translate(249.923295 266.598437)scale(0.1 -0.1)">
       <defs>
        <path d="M 33.015625 40.375 
Q 26.375 40.375 22.484375 35.828125 
Q 18.609375 31.296875 18.609375 23.390625 
Q 18.609375 15.53125 22.484375 10.953125 
Q 26.375 6.390625 33.015625 6.390625 
Q 39.65625 6.390625 43.53125 10.953125 
Q 47.40625 15.53125 47.40625 23.390625 
Q 47.40625 31.296875 43.53125 35.828125 
Q 39.65625 40.375 33.015625 40.375 
z
M 52.59375 71.296875 
L 52.59375 62.3125 
Q 48.875 64.0625 45.09375 64.984375 
Q 41.3125 65.921875 37.59375 65.921875 
Q 27.828125 65.921875 22.671875 59.328125 
Q 17.53125 52.734375 16.796875 39.40625 
Q 19.671875 43.65625 24.015625 45.921875 
Q 28.375 48.1875 33.59375 48.1875 
Q 44.578125 48.1875 50.953125 41.515625 
Q 57.328125 34.859375 57.328125 23.390625 
Q 57.328125 12.15625 50.6875 5.359375 
Q 44.046875 -1.421875 33.015625 -1.421875 
Q 20.359375 -1.421875 13.671875 8.265625 
Q 6.984375 17.96875 6.984375 36.375 
Q 6.984375 53.65625 15.1875 63.9375 
Q 23.390625 74.21875 37.203125 74.21875 
Q 40.921875 74.21875 44.703125 73.484375 
Q 48.484375 72.75 52.59375 71.296875 
z
" id="DejaVuSans-54"/>
       </defs>
       <use xlink:href="#DejaVuSans-54"/>
      </g>
     </g>
    </g>
    <g id="xtick_5">
     <g id="line2d_5">
      <g>
       <use style="stroke:#000000;stroke-width:0.8;" x="316.513636" xlink:href="#m40faf97dae" y="252"/>
      </g>
     </g>
     <g id="text_5">
      <!-- 8 -->
      <g transform="translate(313.332386 266.598437)scale(0.1 -0.1)">
       <defs>
        <path d="M 31.78125 34.625 
Q 24.75 34.625 20.71875 30.859375 
Q 16.703125 27.09375 16.703125 20.515625 
Q 16.703125 13.921875 20.71875 10.15625 
Q 24.75 6.390625 31.78125 6.390625 
Q 38.8125 6.390625 42.859375 10.171875 
Q 46.921875 13.96875 46.921875 20.515625 
Q 46.921875 27.09375 42.890625 30.859375 
Q 38.875 34.625 31.78125 34.625 
z
M 21.921875 38.8125 
Q 15.578125 40.375 12.03125 44.71875 
Q 8.5 49.078125 8.5 55.328125 
Q 8.5 64.0625 14.71875 69.140625 
Q 20.953125 74.21875 31.78125 74.21875 
Q 42.671875 74.21875 48.875 69.140625 
Q 55.078125 64.0625 55.078125 55.328125 
Q 55.078125 49.078125 51.53125 44.71875 
Q 48 40.375 41.703125 38.8125 
Q 48.828125 37.15625 52.796875 32.3125 
Q 56.78125 27.484375 56.78125 20.515625 
Q 56.78125 9.90625 50.3125 4.234375 
Q 43.84375 -1.421875 31.78125 -1.421875 
Q 19.734375 -1.421875 13.25 4.234375 
Q 6.78125 9.90625 6.78125 20.515625 
Q 6.78125 27.484375 10.78125 32.3125 
Q 14.796875 37.15625 21.921875 38.8125 
z
M 18.3125 54.390625 
Q 18.3125 48.734375 21.84375 45.5625 
Q 25.390625 42.390625 31.78125 42.390625 
Q 38.140625 42.390625 41.71875 45.5625 
Q 45.3125 48.734375 45.3125 54.390625 
Q 45.3125 60.0625 41.71875 63.234375 
Q 38.140625 66.40625 31.78125 66.40625 
Q 25.390625 66.40625 21.84375 63.234375 
Q 18.3125 60.0625 18.3125 54.390625 
z
" id="DejaVuSans-56"/>
       </defs>
       <use xlink:href="#DejaVuSans-56"/>
      </g>
     </g>
    </g>
    <g id="xtick_6">
     <g id="line2d_6">
      <g>
       <use style="stroke:#000000;stroke-width:0.8;" x="379.922727" xlink:href="#m40faf97dae" y="252"/>
      </g>
     </g>
     <g id="text_6">
      <!-- 10 -->
      <g transform="translate(373.560227 266.598437)scale(0.1 -0.1)">
       <defs>
        <path d="M 12.40625 8.296875 
L 28.515625 8.296875 
L 28.515625 63.921875 
L 10.984375 60.40625 
L 10.984375 69.390625 
L 28.421875 72.90625 
L 38.28125 72.90625 
L 38.28125 8.296875 
L 54.390625 8.296875 
L 54.390625 0 
L 12.40625 0 
z
" id="DejaVuSans-49"/>
       </defs>
       <use xlink:href="#DejaVuSans-49"/>
       <use x="63.623047" xlink:href="#DejaVuSans-48"/>
      </g>
     </g>
    </g>
    <g id="text_7">
     <!-- $x$ -->
     <g transform="translate(218.4 280.276563)scale(0.1 -0.1)">
      <defs>
       <path d="M 60.015625 54.6875 
L 34.90625 27.875 
L 50.296875 0 
L 39.984375 0 
L 28.421875 21.6875 
L 8.296875 0 
L -2.59375 0 
L 24.3125 28.8125 
L 10.015625 54.6875 
L 20.3125 54.6875 
L 30.8125 34.90625 
L 49.125 54.6875 
z
" id="DejaVuSans-Oblique-120"/>
      </defs>
      <use transform="translate(0 0.3125)" xlink:href="#DejaVuSans-Oblique-120"/>
     </g>
    </g>
   </g>
   <g id="matplotlib.axis_2">
    <g id="ytick_1">
     <g id="line2d_7">
      <defs>
       <path d="M 0 0 
L -3.5 0 
" id="mef215d0c87" style="stroke:#000000;stroke-width:0.8;"/>
      </defs>
      <g>
       <use style="stroke:#000000;stroke-width:0.8;" x="54" xlink:href="#mef215d0c87" y="242.116364"/>
      </g>
     </g>
     <g id="text_8">
      <!-- 0.0 -->
      <g transform="translate(31.096875 245.915582)scale(0.1 -0.1)">
       <defs>
        <path d="M 10.6875 12.40625 
L 21 12.40625 
L 21 0 
L 10.6875 0 
z
" id="DejaVuSans-46"/>
       </defs>
       <use xlink:href="#DejaVuSans-48"/>
       <use x="63.623047" xlink:href="#DejaVuSans-46"/>
       <use x="95.410156" xlink:href="#DejaVuSans-48"/>
      </g>
     </g>
    </g>
    <g id="ytick_2">
     <g id="line2d_8">
      <g>
       <use style="stroke:#000000;stroke-width:0.8;" x="54" xlink:href="#mef215d0c87" y="202.647435"/>
      </g>
     </g>
     <g id="text_9">
      <!-- 0.2 -->
      <g transform="translate(31.096875 206.446654)scale(0.1 -0.1)">
       <use xlink:href="#DejaVuSans-48"/>
       <use x="63.623047" xlink:href="#DejaVuSans-46"/>
       <use x="95.410156" xlink:href="#DejaVuSans-50"/>
      </g>
     </g>
    </g>
    <g id="ytick_3">
     <g id="line2d_9">
      <g>
       <use style="stroke:#000000;stroke-width:0.8;" x="54" xlink:href="#mef215d0c87" y="163.178506"/>
      </g>
     </g>
     <g id="text_10">
      <!-- 0.4 -->
      <g transform="translate(31.096875 166.977725)scale(0.1 -0.1)">
       <use xlink:href="#DejaVuSans-48"/>
       <use x="63.623047" xlink:href="#DejaVuSans-46"/>
       <use x="95.410156" xlink:href="#DejaVuSans-52"/>
      </g>
     </g>
    </g>
    <g id="ytick_4">
     <g id="line2d_10">
      <g>
       <use style="stroke:#000000;stroke-width:0.8;" x="54" xlink:href="#mef215d0c87" y="123.709577"/>
      </g>
     </g>
     <g id="text_11">
      <!-- 0.6 -->
      <g transform="translate(31.096875 127.508796)scale(0.1 -0.1)">
       <use xlink:href="#DejaVuSans-48"/>
       <use x="63.623047" xlink:href="#DejaVuSans-46"/>
       <use x="95.410156" xlink:href="#DejaVuSans-54"/>
      </g>
     </g>
    </g>
    <g id="ytick_5">
     <g id="line2d_11">
      <g>
       <use style="stroke:#000000;stroke-width:0.8;" x="54" xlink:href="#mef215d0c87" y="84.240648"/>
      </g>
     </g>
     <g id="text_12">
      <!-- 0.8 -->
      <g transform="translate(31.096875 88.039867)scale(0.1 -0.1)">
       <use xlink:href="#DejaVuSans-48"/>
       <use x="63.623047" xlink:href="#DejaVuSans-46"/>
       <use x="95.410156" xlink:href="#DejaVuSans-56"/>
      </g>
     </g>
    </g>
    <g id="ytick_6">
     <g id="line2d_12">
      <g>
       <use style="stroke:#000000;stroke-width:0.8;" x="54" xlink:href="#mef215d0c87" y="44.77172"/>
      </g>
     </g>
     <g id="text_13">
      <!-- 1.0 -->
      <g transform="translate(31.096875 48.570938)scale(0.1 -0.1)">
       <use xlink:href="#DejaVuSans-49"/>
       <use x="63.623047" xlink:href="#DejaVuSans-46"/>
       <use x="95.410156" xlink:href="#DejaVuSans-48"/>
      </g>
     </g>
    </g>
    <g id="text_14">
     <!-- $u$ -->
     <g transform="translate(25.017187 146.48)rotate(-90)scale(0.1 -0.1)">
      <defs>
       <path d="M 6.6875 21.6875 
L 13.09375 54.6875 
L 22.125 54.6875 
L 15.71875 22.015625 
Q 15.234375 19.625 15.015625 17.921875 
Q 14.796875 16.21875 14.796875 15.09375 
Q 14.796875 10.9375 17.328125 8.65625 
Q 19.875 6.390625 24.515625 6.390625 
Q 31.734375 6.390625 37 11.265625 
Q 42.28125 16.15625 43.890625 24.421875 
L 49.90625 54.6875 
L 58.890625 54.6875 
L 48.296875 0 
L 39.3125 0 
L 41.109375 8.59375 
Q 37.3125 3.8125 32.0625 1.1875 
Q 26.8125 -1.421875 20.90625 -1.421875 
Q 13.71875 -1.421875 9.71875 2.515625 
Q 5.71875 6.453125 5.71875 13.484375 
Q 5.71875 14.9375 5.953125 17.140625 
Q 6.203125 19.34375 6.6875 21.6875 
z
" id="DejaVuSans-Oblique-117"/>
      </defs>
      <use transform="translate(0 0.3125)" xlink:href="#DejaVuSans-Oblique-117"/>
     </g>
    </g>
   </g>
   <g id="line2d_13">
    <path clip-path="url(#p4196c12ea4)" d="M 69.218182 54.848359 
L 75.559091 66.454526 
L 81.9 83.029623 
L 88.240909 104.108905 
L 94.581818 130.129021 
L 100.922727 159.007111 
L 107.263636 186.423385 
L 113.604545 208.964562 
L 119.945455 224.545156 
L 126.286364 233.820254 
L 132.627273 238.566516 
L 138.968182 240.730316 
L 145.309091 241.61718 
L 151.65 241.949377 
L 157.990909 242.064204 
L 164.331818 242.101069 
L 170.672727 242.112133 
L 177.013636 242.115259 
L 183.354545 242.116089 
L 189.695455 242.116299 
L 196.036364 242.116349 
L 202.377273 242.11636 
L 208.718182 242.116363 
L 215.059091 242.116364 
L 221.4 242.116364 
L 227.740909 242.116364 
L 234.081818 242.116364 
L 240.422727 242.116364 
L 246.763636 242.116364 
L 253.104545 242.116364 
L 259.445455 242.116364 
L 265.786364 242.116364 
L 272.127273 242.116364 
L 278.468182 242.116364 
L 284.809091 242.116364 
L 291.15 242.116364 
L 297.490909 242.116364 
L 303.831818 242.116364 
L 310.172727 242.116364 
L 316.513636 242.116364 
L 322.854545 242.116364 
L 329.195455 242.116364 
L 335.536364 242.116364 
L 341.877273 242.116364 
L 348.218182 242.116364 
L 354.559091 242.116364 
L 360.9 242.116364 
L 367.240909 242.116364 
L 373.581818 242.116364 
" style="fill:none;stroke:#1f77b4;stroke-linecap:square;stroke-width:2;"/>
   </g>
   <g id="line2d_14">
    <path clip-path="url(#p4196c12ea4)" d="M 69.218182 45.458767 
L 75.559091 45.854271 
L 81.9 47.233449 
L 88.240909 48.121917 
L 94.581818 50.600741 
L 100.922727 53.20704 
L 107.263636 57.861917 
L 113.604545 63.992539 
L 119.945455 73.017127 
L 126.286364 85.17255 
L 132.627273 101.229315 
L 138.968182 121.095791 
L 145.309091 143.968397 
L 151.65 167.924489 
L 157.990909 190.395897 
L 164.331818 209.060373 
L 170.672727 222.751603 
L 177.013636 231.670618 
L 183.354545 236.889543 
L 189.695455 239.670452 
L 196.036364 241.037844 
L 202.377273 241.665374 
L 208.718182 241.936611 
L 215.059091 242.0478 
L 221.4 242.091258 
L 227.740909 242.107517 
L 234.081818 242.113358 
L 240.422727 242.115377 
L 246.763636 242.116051 
L 253.104545 242.116267 
L 259.445455 242.116335 
L 265.786364 242.116355 
L 272.127273 242.116361 
L 278.468182 242.116363 
L 284.809091 242.116363 
L 291.15 242.116364 
L 297.490909 242.116364 
L 303.831818 242.116364 
L 310.172727 242.116364 
L 316.513636 242.116364 
L 322.854545 242.116364 
L 329.195455 242.116364 
L 335.536364 242.116364 
L 341.877273 242.116364 
L 348.218182 242.116364 
L 354.559091 242.116364 
L 360.9 242.116364 
L 367.240909 242.116364 
L 373.581818 242.116364 
" style="fill:none;stroke:#ff7f0e;stroke-linecap:square;stroke-width:2;"/>
   </g>
   <g id="line2d_15">
    <path clip-path="url(#p4196c12ea4)" d="M 69.218182 44.819551 
L 75.559091 44.789644 
L 81.9 44.927293 
L 88.240909 44.866209 
L 94.581818 45.090979 
L 100.922727 45.081905 
L 107.263636 45.412688 
L 113.604545 45.580428 
L 119.945455 46.114816 
L 126.286364 46.665211 
L 132.627273 47.665285 
L 138.968182 48.99072 
L 145.309091 51.025599 
L 151.65 53.907719 
L 157.990909 58.086285 
L 164.331818 63.979301 
L 170.672727 72.182962 
L 177.013636 83.284444 
L 183.354545 97.78806 
L 189.695455 115.83148 
L 196.036364 136.890988 
L 202.377273 159.568267 
L 208.718182 181.748165 
L 215.059091 201.224326 
L 221.4 216.502556 
L 227.740909 227.23682 
L 234.081818 234.050266 
L 240.422727 238.004903 
L 246.763636 240.130852 
L 253.104545 241.201838 
L 259.445455 241.712384 
L 265.786364 241.94447 
L 272.127273 242.045671 
L 278.468182 242.08819 
L 284.809091 242.10546 
L 291.15 242.112259 
L 297.490909 242.114859 
L 303.831818 242.115826 
L 310.172727 242.116176 
L 316.513636 242.1163 
L 322.854545 242.116342 
L 329.195455 242.116357 
L 335.536364 242.116361 
L 341.877273 242.116363 
L 348.218182 242.116363 
L 354.559091 242.116364 
L 360.9 242.116364 
L 367.240909 242.116364 
L 373.581818 242.116364 
" style="fill:none;stroke:#2ca02c;stroke-linecap:square;stroke-width:2;"/>
   </g>
   <g id="line2d_16">
    <path clip-path="url(#p4196c12ea4)" d="M 69.218182 44.769828 
L 75.559091 44.778525 
L 81.9 44.767454 
L 88.240909 44.785011 
L 94.581818 44.770541 
L 100.922727 44.794024 
L 107.263636 44.784147 
L 113.604545 44.812217 
L 119.945455 44.815916 
L 126.286364 44.852927 
L 132.627273 44.882303 
L 138.968182 44.943685 
L 145.309091 45.021242 
L 151.65 45.142579 
L 157.990909 45.316624 
L 164.331818 45.572875 
L 170.672727 45.948177 
L 177.013636 46.495247 
L 183.354545 47.294133 
L 189.695455 48.453859 
L 196.036364 50.134017 
L 202.377273 52.55256 
L 208.718182 56.009732 
L 215.059091 60.898409 
L 221.4 67.709893 
L 227.740909 77.003966 
L 234.081818 89.323329 
L 240.422727 105.018996 
L 246.763636 123.989194 
L 253.104545 145.4122 
L 259.445455 167.667021 
L 265.786364 188.647928 
L 272.127273 206.444171 
L 278.468182 220.00008 
L 284.809091 229.319003 
L 291.15 235.158056 
L 297.490909 238.533938 
L 303.831818 240.357223 
L 310.172727 241.287267 
L 316.513636 241.739386 
L 322.854545 241.950334 
L 329.195455 242.045312 
L 335.536364 242.086747 
L 341.877273 242.104316 
L 348.218182 242.111574 
L 354.559091 242.114501 
L 360.9 242.115655 
L 367.240909 242.116103 
L 373.581818 242.116279 
" style="fill:none;stroke:#d62728;stroke-linecap:square;stroke-width:2;"/>
   </g>
   <g id="line2d_17">
    <path clip-path="url(#p4196c12ea4)" d="M 69.218182 44.701362 
L 75.559091 44.908096 
L 81.9 44.574462 
L 88.240909 45.018282 
L 94.581818 44.484386 
L 100.922727 45.084333 
L 107.263636 44.443636 
L 113.604545 45.101308 
L 119.945455 44.45141 
L 126.286364 45.076897 
L 132.627273 44.496321 
L 138.968182 45.027263 
L 145.309091 44.562693 
L 151.65 44.971592 
L 157.990909 44.637604 
L 164.331818 44.928368 
L 170.672727 44.71681 
L 177.013636 44.915695 
L 183.354545 44.809927 
L 189.695455 44.95739 
L 196.036364 44.947974 
L 202.377273 45.097359 
L 208.718182 45.199616 
L 215.059091 45.428283 
L 221.4 45.707548 
L 227.740909 46.1484 
L 234.081818 46.766118 
L 240.422727 47.674258 
L 246.763636 48.977692 
L 253.104545 50.856928 
L 259.445455 53.54205 
L 265.786364 57.352817 
L 272.127273 62.697714 
L 278.468182 70.076587 
L 284.809091 80.037517 
L 291.15 93.074918 
L 297.490909 109.438849 
L 303.831818 128.874561 
L 310.172727 150.394322 
L 316.513636 172.279572 
L 322.854545 192.475415 
L 329.195455 209.271036 
L 335.536364 221.857572 
L 341.877273 230.409841 
L 348.218182 235.73485 
L 354.559091 238.812148 
L 360.9 240.486267 
L 367.240909 241.361303 
L 373.581818 241.82429 
" style="fill:none;stroke:#9467bd;stroke-linecap:square;stroke-width:2;"/>
   </g>
   <g id="line2d_18">
    <path clip-path="url(#p4196c12ea4)" d="M 69.218182 44.76087 
L 75.559091 44.791747 
L 81.9 44.740643 
L 88.240909 44.80825 
L 94.581818 44.724822 
L 100.922727 44.819109 
L 107.263636 44.71565 
L 113.604545 44.823683 
L 119.945455 44.713781 
L 126.286364 44.822542 
L 132.627273 44.718215 
L 138.968182 44.817113 
L 145.309091 44.726875 
L 151.65 44.809269 
L 157.990909 44.737481 
L 164.331818 44.800961 
L 170.672727 44.748304 
L 177.013636 44.793972 
L 183.354545 44.758651 
L 189.695455 44.789966 
L 196.036364 44.76919 
L 202.377273 44.790951 
L 208.718182 44.782449 
L 215.059091 44.800421 
L 221.4 44.804024 
L 227.740909 44.825662 
L 234.081818 44.845445 
L 240.422727 44.882381 
L 246.763636 44.930514 
L 253.104545 45.004188 
L 259.445455 45.108808 
L 265.786364 45.262249 
L 272.127273 45.483967 
L 278.468182 45.805986 
L 284.809091 46.272029 
L 291.15 46.946132 
L 297.490909 47.91881 
L 303.831818 49.318426 
L 310.172727 51.324158 
L 316.513636 54.182313 
L 322.854545 58.223313 
L 329.195455 63.875646 
L 335.536364 71.669161 
L 341.877273 82.218492 
L 348.218182 96.183671 
L 354.559091 114.229853 
L 360.9 137.049562 
L 367.240909 165.496989 
L 373.581818 200.582228 
" style="fill:none;stroke:#8c564b;stroke-linecap:square;stroke-width:2;"/>
   </g>
   <g id="patch_3">
    <path d="M 54 252 
L 54 34.56 
" style="fill:none;stroke:#000000;stroke-linecap:square;stroke-linejoin:miter;stroke-width:0.8;"/>
   </g>
   <g id="patch_4">
    <path d="M 388.8 252 
L 388.8 34.56 
" style="fill:none;stroke:#000000;stroke-linecap:square;stroke-linejoin:miter;stroke-width:0.8;"/>
   </g>
   <g id="patch_5">
    <path d="M 54 252 
L 388.8 252 
" style="fill:none;stroke:#000000;stroke-linecap:square;stroke-linejoin:miter;stroke-width:0.8;"/>
   </g>
   <g id="patch_6">
    <path d="M 54 34.56 
L 388.8 34.56 
" style="fill:none;stroke:#000000;stroke-linecap:square;stroke-linejoin:miter;stroke-width:0.8;"/>
   </g>
   <g id="legend_1">
    <g id="patch_7">
     <path d="M 61 247 
L 131.5 247 
Q 133.5 247 133.5 245 
L 133.5 157.93125 
Q 133.5 155.93125 131.5 155.93125 
L 61 155.93125 
Q 59 155.93125 59 157.93125 
L 59 245 
Q 59 247 61 247 
z
" style="fill:#ffffff;opacity:0.8;stroke:#cccccc;stroke-linejoin:miter;"/>
    </g>
    <g id="line2d_19">
     <path d="M 63 164.029688 
L 83 164.029688 
" style="fill:none;stroke:#1f77b4;stroke-linecap:square;stroke-width:2;"/>
    </g>
    <g id="line2d_20"/>
    <g id="text_15">
     <!-- $t = 2.0$ -->
     <g transform="translate(91 167.529688)scale(0.1 -0.1)">
      <defs>
       <path d="M 42.28125 54.6875 
L 40.921875 47.703125 
L 23 47.703125 
L 17.1875 18.015625 
Q 16.890625 16.359375 16.75 15.234375 
Q 16.609375 14.109375 16.609375 13.484375 
Q 16.609375 10.359375 18.484375 8.9375 
Q 20.359375 7.515625 24.515625 7.515625 
L 33.59375 7.515625 
L 32.078125 0 
L 23.484375 0 
Q 15.484375 0 11.546875 3.125 
Q 7.625 6.25 7.625 12.59375 
Q 7.625 13.71875 7.765625 15.0625 
Q 7.90625 16.40625 8.203125 18.015625 
L 14.015625 47.703125 
L 6.390625 47.703125 
L 7.8125 54.6875 
L 15.28125 54.6875 
L 18.3125 70.21875 
L 27.296875 70.21875 
L 24.3125 54.6875 
z
" id="DejaVuSans-Oblique-116"/>
       <path d="M 10.59375 45.40625 
L 73.1875 45.40625 
L 73.1875 37.203125 
L 10.59375 37.203125 
z
M 10.59375 25.484375 
L 73.1875 25.484375 
L 73.1875 17.1875 
L 10.59375 17.1875 
z
" id="DejaVuSans-61"/>
      </defs>
      <use transform="translate(0 0.78125)" xlink:href="#DejaVuSans-Oblique-116"/>
      <use transform="translate(58.691406 0.78125)" xlink:href="#DejaVuSans-61"/>
      <use transform="translate(161.962891 0.78125)" xlink:href="#DejaVuSans-50"/>
      <use transform="translate(225.585938 0.78125)" xlink:href="#DejaVuSans-46"/>
      <use transform="translate(257.373047 0.78125)" xlink:href="#DejaVuSans-48"/>
     </g>
    </g>
    <g id="line2d_21">
     <path d="M 63 178.707813 
L 83 178.707813 
" style="fill:none;stroke:#ff7f0e;stroke-linecap:square;stroke-width:2;"/>
    </g>
    <g id="line2d_22"/>
    <g id="text_16">
     <!-- $t = 4.0$ -->
     <g transform="translate(91 182.207813)scale(0.1 -0.1)">
      <use transform="translate(0 0.78125)" xlink:href="#DejaVuSans-Oblique-116"/>
      <use transform="translate(58.691406 0.78125)" xlink:href="#DejaVuSans-61"/>
      <use transform="translate(161.962891 0.78125)" xlink:href="#DejaVuSans-52"/>
      <use transform="translate(225.585938 0.78125)" xlink:href="#DejaVuSans-46"/>
      <use transform="translate(257.373047 0.78125)" xlink:href="#DejaVuSans-48"/>
     </g>
    </g>
    <g id="line2d_23">
     <path d="M 63 193.385938 
L 83 193.385938 
" style="fill:none;stroke:#2ca02c;stroke-linecap:square;stroke-width:2;"/>
    </g>
    <g id="line2d_24"/>
    <g id="text_17">
     <!-- $t = 6.0$ -->
     <g transform="translate(91 196.885938)scale(0.1 -0.1)">
      <use transform="translate(0 0.78125)" xlink:href="#DejaVuSans-Oblique-116"/>
      <use transform="translate(58.691406 0.78125)" xlink:href="#DejaVuSans-61"/>
      <use transform="translate(161.962891 0.78125)" xlink:href="#DejaVuSans-54"/>
      <use transform="translate(225.585938 0.78125)" xlink:href="#DejaVuSans-46"/>
      <use transform="translate(257.373047 0.78125)" xlink:href="#DejaVuSans-48"/>
     </g>
    </g>
    <g id="line2d_25">
     <path d="M 63 208.064063 
L 83 208.064063 
" style="fill:none;stroke:#d62728;stroke-linecap:square;stroke-width:2;"/>
    </g>
    <g id="line2d_26"/>
    <g id="text_18">
     <!-- $t = 8.0$ -->
     <g transform="translate(91 211.564063)scale(0.1 -0.1)">
      <use transform="translate(0 0.78125)" xlink:href="#DejaVuSans-Oblique-116"/>
      <use transform="translate(58.691406 0.78125)" xlink:href="#DejaVuSans-61"/>
      <use transform="translate(161.962891 0.78125)" xlink:href="#DejaVuSans-56"/>
      <use transform="translate(225.585938 0.78125)" xlink:href="#DejaVuSans-46"/>
      <use transform="translate(257.373047 0.78125)" xlink:href="#DejaVuSans-48"/>
     </g>
    </g>
    <g id="line2d_27">
     <path d="M 63 222.742188 
L 83 222.742188 
" style="fill:none;stroke:#9467bd;stroke-linecap:square;stroke-width:2;"/>
    </g>
    <g id="line2d_28"/>
    <g id="text_19">
     <!-- $t = 10.0$ -->
     <g transform="translate(91 226.242188)scale(0.1 -0.1)">
      <use transform="translate(0 0.78125)" xlink:href="#DejaVuSans-Oblique-116"/>
      <use transform="translate(58.691406 0.78125)" xlink:href="#DejaVuSans-61"/>
      <use transform="translate(161.962891 0.78125)" xlink:href="#DejaVuSans-49"/>
      <use transform="translate(225.585938 0.78125)" xlink:href="#DejaVuSans-48"/>
      <use transform="translate(289.208984 0.78125)" xlink:href="#DejaVuSans-46"/>
      <use transform="translate(320.996094 0.78125)" xlink:href="#DejaVuSans-48"/>
     </g>
    </g>
    <g id="line2d_29">
     <path d="M 63 237.420313 
L 83 237.420313 
" style="fill:none;stroke:#8c564b;stroke-linecap:square;stroke-width:2;"/>
    </g>
    <g id="line2d_30"/>
    <g id="text_20">
     <!-- $t = 12.0$ -->
     <g transform="translate(91 240.920313)scale(0.1 -0.1)">
      <use transform="translate(0 0.78125)" xlink:href="#DejaVuSans-Oblique-116"/>
      <use transform="translate(58.691406 0.78125)" xlink:href="#DejaVuSans-61"/>
      <use transform="translate(161.962891 0.78125)" xlink:href="#DejaVuSans-49"/>
      <use transform="translate(225.585938 0.78125)" xlink:href="#DejaVuSans-50"/>
      <use transform="translate(289.208984 0.78125)" xlink:href="#DejaVuSans-46"/>
      <use transform="translate(320.996094 0.78125)" xlink:href="#DejaVuSans-48"/>
     </g>
    </g>
   </g>
  </g>
 </g>
 <defs>
  <clipPath id="p4196c12ea4">
   <rect height="217.44" width="334.8" x="54" y="34.56"/>
  </clipPath>
 </defs>
</svg>
